#!OML:ASF \\sashay\E\basketball\basketball\Project 1\Capture day 1\Session 1\Subject.ASF
:FULLY-SPECIFIED
:DEGREES
261
root -32.237 12.7382 -6.35051 183.207 -13.4219 -181.517
lowerback 39.1037 6.8164 -1.57031
upperback 13.6967 3.26742 -2.55857
thorax -3.75914 -0.129982 -2.9418
lowerneck -10.4203 7.36563 -9.77387
upperneck -23.0211 9.3922 5.2354
head -6.10074 4.04586 3.18706
rclavicle 2.76311e-014 4.79071e-014
rhumerus -4.64773 -13.2449 -72.8076
rradius 50.6682
rwrist -3.16178
rhand -33.8247 41.6394
rfingers 7.12502
rthumb -7.01038 11.7755
lclavicle 2.76311e-014 4.79071e-014
lhumerus -8.133 30.8069 73.6635
lradius 69.8179
lwrist 33.8021
lhand -26.4473 8.42916
lfingers 7.12502
lthumb 0.11377 38.4089
rfemur -50.868 -21.7332 -0.852245
rtibia 74.1907
rfoot -16.6234 -7.29692
rtoes -37.9356
lfemur -59.0164 31.9996 -24.2704
ltibia 85.4308
lfoot -21.8458 2.61874
ltoes -31.7715
262
root -32.2156 12.7707 -6.3604 183.151 -13.5216 -181.29
lowerback 39.007 6.98336 -1.93283
upperback 13.6179 3.43097 -2.10172
thorax -3.85192 -0.0681233 -2.33145
lowerneck -10.5704 7.3813 -9.70374
upperneck -22.8757 9.3617 4.90669
head -6.01182 4.04847 3.07444
rclavicle 1.2921e-015 -3.02153e-014
rhumerus -4.90707 -12.8782 -72.5309
rradius 50.1853
rwrist -2.47745
rhand -32.6739 39.9567
rfingers 7.12502
rthumb -5.89941 10.0589
lclavicle 1.2921e-015 -3.02153e-014
lhumerus -8.16433 30.4651 74.379
lradius 69.1147
lwrist 33.921
lhand -25.7551 8.69748
lfingers 7.12502
lthumb 0.782277 38.6758
rfemur -50.6081 -21.5703 -0.47607
rtibia 73.8752
rfoot -16.4684 -7.65769
rtoes -37.9562
lfemur -58.762 31.8998 -23.8633
ltibia 85.0246
lfoot -21.6257 2.60922
ltoes -32.0521
263
root -32.195 12.8045 -6.37117 183.097 -13.5645 -181.187
lowerback 38.93 7.52972 -3.15488
upperback 13.5148 3.81672 -0.93252
thorax -4.07296 0.0425512 -0.617788
lowerneck -11.4038 7.08676 -10.7222
upperneck -22.2349 9.05902 4.87792
head -5.70959 4.00228 3.26524
rclavicle -1.01877e-014 1.33434e-014
rhumerus -5.05385 -11.6742 -71.2252
rradius 49.831
rwrist -2.41304
rhand -31.623 38.8397
rfingers 7.12502
rthumb -4.88475 8.91602
lclavicle -1.01877e-014 1.33434e-014
lhumerus -8.42539 30.9328 76.044
lradius 68.3654
lwrist 32.8302
lhand -25.8718 8.7662
lfingers 7.12502
lthumb 0.669555 38.7449
rfemur -50.3509 -21.3446 -0.243994
rtibia 73.5542
rfoot -16.3249 -8.01775
rtoes -37.9365
lfemur -58.3887 31.8221 -23.5812
ltibia 84.5592
lfoot -21.3779 2.74268
ltoes -32.8201
264
root -32.1763 12.8411 -6.38007 183.055 -13.5947 -181.286
lowerback 38.8456 7.61359 -3.41853
upperback 13.5257 3.83535 -0.883647
thorax -4.05258 0.0405636 -0.437219
lowerneck -11.4255 6.82743 -11.038
upperneck -22.5052 8.75342 5.33289
head -5.80009 3.83419 3.47903
rclavicle -5.59082e-014 1.08437e-013
rhumerus -4.94479 -11.8002 -71.6872
rradius 49.0659
rwrist -1.72081
rhand -30.4743 38.073
rfingers 7.12502
rthumb -3.77548 8.12665
lclavicle -5.59082e-014 1.08437e-013
lhumerus -8.17589 30.578 76.3981
lradius 67.3587
lwrist 31.8716
lhand -26.9519 8.61189
lfingers 7.12502
lthumb -0.373588 38.5913
rfemur -50.0997 -21.3608 -0.218525
rtibia 73.2386
rfoot -16.226 -8.0739
rtoes -37.8347
lfemur -57.9109 31.7689 -23.4974
ltibia 84.0398
lfoot -21.176 2.82672
ltoes -33.6366
265
root -32.1575 12.8825 -6.38887 183.027 -13.6387 -181.287
lowerback 38.7252 7.60157 -3.5875
upperback 13.4686 3.792 -0.905052
thorax -4.0849 0.0260544 -0.35556
lowerneck -10.4923 6.63145 -11.6842
upperneck -23.5045 8.52345 6.05761
head -6.30806 3.6967 3.81194
rclavicle 6.61456e-014 -3.46879e-014
rhumerus -5.07275 -11.8463 -72.2781
rradius 48.3948
rwrist -1.02806
rhand -29.3288 37.0665
rfingers 7.12502
rthumb -2.66921 7.10349
lclavicle 6.61456e-014 -3.46879e-014
lhumerus -8.12012 30.0579 76.3787
lradius 66.2515
lwrist 31.0255
lhand -28.3023 8.5337
lfingers 7.12502
lthumb -1.67787 38.5068
rfemur -49.8474 -21.4189 -0.0373971
rtibia 72.8609
rfoot -15.996 -8.24528
rtoes -38.1185
lfemur -57.5122 31.7349 -23.3345
ltibia 83.5033
lfoot -20.9648 2.89232
ltoes -34.6199
266
root -32.1372 12.9268 -6.39856 182.942 -13.7473 -181.145
lowerback 38.6828 7.51809 -3.59851
upperback 13.3602 3.727 -0.913658
thorax -4.19008 0.0120167 -0.335184
lowerneck -9.8837 6.47752 -12.1036
upperneck -24.0636 8.37707 6.75771
head -6.61703 3.59516 4.111
rclavicle -1.78906e-014 -6.45553e-014
rhumerus -5.27009 -12.3045 -72.9467
rradius 47.6454
rwrist 0.173668
rhand -28.2016 36.1468
rfingers 7.12502
rthumb -1.58061 6.17286
lclavicle -1.78906e-014 -6.45553e-014
lhumerus -8.23087 29.4061 76.2588
lradius 65.1176
lwrist 30.1212
lhand -29.3579 8.59094
lfingers 7.12502
lthumb -2.69739 38.5536
rfemur -49.4888 -21.5201 0.290138
rtibia 72.4468
rfoot -15.8352 -8.34504
rtoes -38.208
lfemur -57.0784 31.605 -23.0161
ltibia 82.9323
lfoot -20.7083 3.01062
ltoes -35.1767
267
root -32.1143 12.9715 -6.40852 182.774 -13.8476 -181.145
lowerback 38.7426 7.65639 -3.97967
upperback 13.3329 3.78432 -0.618074
thorax -4.27972 0.0159611 0.145717
lowerneck -9.94577 6.35151 -12.4388
upperneck -24.1352 8.24495 7.0207
head -6.64318 3.5349 4.26487
rclavicle 9.0447e-015 -1.67973e-014
rhumerus -5.00608 -13.344 -73.3541
rradius 46.5048
rwrist 2.12476
rhand -26.9846 35.8821
rfingers 7.12502
rthumb -0.405213 5.9027
lclavicle 9.0447e-015 -1.67973e-014
lhumerus -8.25778 28.9589 76.7405
lradius 63.9542
lwrist 28.8886
lhand -30.1471 8.77437
lfingers 7.12502
lthumb -3.45953 38.726
rfemur -49.007 -21.6638 0.403106
rtibia 72.0761
rfoot -15.9544 -8.21893
rtoes -38.365
lfemur -56.4367 31.5388 -22.7299
ltibia 82.3497
lfoot -20.4041 2.43972
ltoes -32.8348
268
root -32.0922 13.0152 -6.41775 182.681 -13.8565 -181.162
lowerback 38.784 7.60121 -3.86383
upperback 13.3145 3.72981 -0.864051
thorax -4.28868 0.00228442 -0.152787
lowerneck -9.70804 6.24485 -11.9983
upperneck -24.6285 8.02811 7.11662
head -6.80054 3.35178 4.23942
rclavicle -2.14687e-014 -2.38542e-015
rhumerus -5.31601 -13.4761 -73.966
rradius 46.0151
rwrist 2.88675
rhand -26.127 35.1728
rfingers 7.12502
rthumb 0.423049 5.1935
lclavicle -2.14687e-014 -2.38542e-015
lhumerus -7.97425 28.0846 76.5909
lradius 62.6111
lwrist 27.696
lhand -30.9326 9.01521
lfingers 7.12502
lthumb -4.21808 38.9532
rfemur -48.6852 -21.9297 0.571796
rtibia 71.6905
rfoot -16.0071 -8.01232
rtoes -38.9865
lfemur -55.8724 31.5243 -22.4628
ltibia 81.7845
lfoot -19.9559 1.54112
ltoes -28.5986
269
root -32.0733 13.0558 -6.42867 182.797 -14.3197 -181.216
lowerback 38.5321 7.48604 -4.27582
upperback 13.2013 3.56382 -0.517754
thorax -4.37461 -0.0706312 0.486358
lowerneck -8.85058 6.26767 -11.4511
upperneck -25.4332 7.76783 6.22882
head -7.13139 3.19844 3.85196
rclavicle -4.7758e-014 1.44616e-014
rhumerus -6.06703 -12.0689 -73.5998
rradius 46.1917
rwrist 2.52425
rhand -25.5204 33.8641
rfingers 7.12502
rthumb 1.00896 3.88675
lclavicle -4.7758e-014 1.44616e-014
lhumerus -8.1745 27.6719 76.8872
lradius 61.264
lwrist 26.6789
lhand -31.641 9.29323
lfingers 7.12502
lthumb -4.9021 39.2165
rfemur -48.3695 -22.7484 0.69627
rtibia 71.3064
rfoot -15.8467 -7.62182
rtoes -38.8387
lfemur -55.6816 31.1706 -22.4473
ltibia 81.2268
lfoot -19.6685 1.08416
ltoes -26.7593
270
root -32.0471 13.1071 -6.4351 182.57 -14.1681 -181.043
lowerback 38.6825 7.5978 -4.68695
upperback 12.9603 3.61377 -0.265643
thorax -4.72478 -0.0435377 0.935751
lowerneck -8.16926 6.27405 -12.6266
upperneck -25.4003 8.03917 7.49413
head -7.35516 3.3664 4.44309
rclavicle 2.56432e-014 -3.65267e-014
rhumerus -6.74587 -11.9045 -73.8701
rradius 46.1542
rwrist 3.34512
rhand -24.5904 33.1534
rfingers 7.12502
rthumb 1.90716 3.18215
lclavicle 2.56432e-014 -3.65267e-014
lhumerus -8.61059 27.2015 76.8861
lradius 59.9375
lwrist 25.8466
lhand -32.3439 9.70862
lfingers 7.12502
lthumb -5.58078 39.6151
rfemur -47.951 -22.8154 1.08005
rtibia 70.8216
rfoot -15.5548 -7.24642
rtoes -38.4057
lfemur -54.9541 31.1273 -21.8862
ltibia 80.6289
lfoot -19.8226 1.35277
ltoes -28.1704
271
root -32.0198 13.1523 -6.44194 182.346 -14.1332 -180.699
lowerback 38.8042 7.6087 -4.86815
upperback 12.7845 3.61092 -0.0335896
thorax -4.9808 -0.0388236 1.26852
lowerneck -8.00736 6.26573 -13.1521
upperneck -25.3012 8.16893 8.21708
head -7.41056 3.42987 4.76614
rclavicle 2.97183e-014 -4.1546e-014
rhumerus -7.14416 -11.5288 -74.1293
rradius 45.797
rwrist 3.97086
rhand -23.7163 32.7628
rfingers 7.12502
rthumb 2.75139 2.80081
lclavicle 2.97183e-014 -4.1546e-014
lhumerus -8.8568 26.6724 76.9435
lradius 58.6105
lwrist 25.2673
lhand -33.2962 10.0265
lfingers 7.12502
lthumb -6.50017 39.9068
rfemur -47.5294 -22.9359 1.64504
rtibia 70.349
rfoot -15.391 -7.02847
rtoes -38.4841
lfemur -54.3995 31.2076 -21.2662
ltibia 80.0742
lfoot -19.7784 1.51384
ltoes -29.4717
272
root -31.9886 13.1877 -6.44985 182.298 -14.2195 -180.527
lowerback 38.6709 7.4859 -4.95276
upperback 12.7363 3.4516 -0.122831
thorax -4.98284 -0.103626 1.28032
lowerneck -8.13815 6.25321 -12.875
upperneck -25.2782 8.2086 8.65255
head -7.38113 3.37766 4.87429
rclavicle -2.84262e-014 -3.13086e-014
rhumerus -7.34109 -10.7872 -74.661
rradius 45.2646
rwrist 4.06651
rhand -23.0433 32.3163
rfingers 7.12502
rthumb 3.40124 2.36366
lclavicle -2.84262e-014 -3.13086e-014
lhumerus -8.84621 25.5848 76.5483
lradius 57.1823
lwrist 25.1404
lhand -34.1648 10.6706
lfingers 7.12502
lthumb -7.33869 40.5234
rfemur -47.2578 -23.2845 2.04095
rtibia 69.9096
rfoot -15.3116 -6.76749
rtoes -38.3347
lfemur -54.0739 31.1423 -20.9237
ltibia 79.5374
lfoot -19.5109 1.63252
ltoes -30.2588
273
root -31.9561 13.2181 -6.45925 182.267 -14.5278 -180.505
lowerback 38.6859 7.39527 -5.12935
upperback 12.6207 3.32457 -0.0226708
thorax -5.12292 -0.151312 1.52175
lowerneck -8.01276 6.1064 -12.956
upperneck -25.3762 8.06378 9.13523
head -7.4336 3.2674 5.06546
rclavicle -2.34566e-014 7.15625e-014
rhumerus -7.62529 -10.1385 -74.8274
rradius 44.6637
rwrist 4.12714
rhand -22.4359 31.713
rfingers 7.12502
rthumb 3.98781 1.77054
lclavicle -2.34566e-014 7.15625e-014
lhumerus -8.84789 24.2318 76.491
lradius 55.6605
lwrist 25.1805
lhand -34.7661 11.7607
lfingers 7.12502
lthumb -7.91904 41.5923
rfemur -46.8628 -23.7233 2.13913
rtibia 69.5264
rfoot -15.2521 -6.45549
rtoes -37.5057
lfemur -53.8052 30.8361 -20.737
ltibia 79.0116
lfoot -19.2538 1.92237
ltoes -32.4221
274
root -31.9237 13.2556 -6.4665 182.394 -14.5156 -180.464
lowerback 38.4376 7.44383 -5.21481
upperback 12.5477 3.43104 0.0250083
thorax -5.13696 -0.0813672 1.58083
lowerneck -7.82247 5.8069 -13.1876
upperneck -25.6138 7.70411 9.63476
head -7.52417 3.06232 5.30479
rclavicle 2.34566e-014 -2.34566e-014
rhumerus -7.92246 -9.82822 -74.9344
rradius 44.0645
rwrist 4.16394
rhand -21.9634 31.1017
rfingers 7.12502
rthumb 4.44411 1.16837
lclavicle 2.34566e-014 -2.34566e-014
lhumerus -8.57682 22.7375 76.6701
lradius 54.1374
lwrist 25.174
lhand -35.0021 13.1366
lfingers 7.12502
lthumb -8.14676 42.9595
rfemur -46.7868 -23.9571 2.38895
rtibia 69.1954
rfoot -15.2576 -5.91675
rtoes -36.717
lfemur -53.6847 30.7943 -20.6005
ltibia 78.4677
lfoot -19.0304 2.15328
ltoes -34.0499
